<svg width="136" height="136" viewBox="0 0 136 136" fill="none" xmlns="http://www.w3.org/2000/svg">
<path d="M58.7687 2.7651C12.0815 9.54935 -12.6342 61.5098 11.3486 102.459L14.5942 108L20.8701 102.152C31.9348 91.8422 51.8669 84.3407 68.1952 84.3407C84.2064 84.3407 103.961 91.6562 115.578 101.889C122.498 107.985 122.148 108.075 126.965 98.9731C134.408 84.9081 136.154 63.9559 131.199 48.1647C121.549 17.4148 90.7604 -1.88352 58.7687 2.7651ZM70.5 26.5C90.8289 37.019 87.2514 32.8829 68.1952 45.5C63.3315 48.7222 72.4236 52.5 63.5 52.5C55.8048 38.4182 68.3637 62.2222 63.5 59C42.9995 45.4262 84.5884 61.2677 65.5 31.5C71.5499 29.2466 64.8781 23.591 70.5 26.5Z" fill="#EEEEEE" stroke="#EEEEEE" stroke-width="1.33333"/>
<path d="M48.38 85.98C37.2565 88.8146 27.1608 93.8853 19.6571 100.405C13.0772 106.124 13.0702 106.139 15.4483 109.623C16.7596 111.543 21.1295 115.504 25.1634 118.427C47.5146 134.625 74.3554 137.217 98.7 125.527C108.176 120.976 122 109.915 122 106.884C122 104.244 109.176 94.5133 100.565 90.6186C95.9288 88.5213 88.8224 86.1426 84.7747 85.332C74.7304 83.3213 57.62 83.6266 48.38 85.98Z" fill="#898989" stroke="#898989" stroke-width="1.33333"/>
<path d="M56.3536 25.7382C50.3596 28.802 44.3317 36.7883 43.292 43.0432C40.9109 57.3733 53.4439 72 68.1053 72C83.1358 72 95.394 57.2914 92.6008 42.6056C89.6131 26.8886 71.0255 18.2395 56.3536 25.7382Z" fill="#898989" stroke="#898989" stroke-width="1.33333"/>
</svg>
